<svg xmlns="http://www.w3.org/2000/svg" width="100" height="100" fill="none" stroke="#FFFFFF" stroke-linecap="round" stroke-linejoin="round" stroke-width="1.5" viewBox="0 0 24 24">
  <path d="M2 5a1 1 0 0 1 1-1h18a1 1 0 0 1 1 1v14a1 1 0 0 1-1 1H3a1 1 0 0 1-1-1V5Z" />
  <path d="M18 4v16" />
  <path d="M6 4v16" />
  <path d="M19 9h3" />
  <path d="M19 15h3" />
  <path d="M2 9h3" />
  <path d="M2 8v2" />
  <path d="M4.5 4h3" />
  <path d="M4.5 20h3" />
  <path d="M16.5 4h3" />
  <path d="M16.5 20h3" />
  <path d="M2 15h3" />
  <path d="M2 14v2" />
  <path d="M22 14v2" />
  <path d="M22 8v2" />
  <path d="m10.5 9.5 4 2.5-4 2.5v-5Z" />
</svg>